<?xml version="1.0" encoding="UTF-8"?>
<svg version="1.1" xmlns="http://www.w3.org/2000/svg" width="544" height="393">
<path d="M0 0 C16.85948249 11.95791946 24.82312112 30.56915467 31.29711914 49.45117188 C34.11178824 57.48451731 34.11178824 57.48451731 39.96875 63.41015625 C50.73896933 65.56420012 60.85643793 59.46481789 69.64794922 53.76171875 C73.18886331 51.32945837 76.6326563 48.76684314 80.08544922 46.21191406 C105.75750892 27.45127844 133.58804148 18.64392158 165.55615234 22.2890625 C189.42486807 26.25035591 209.59638862 39.60079332 223.78125 58.97265625 C237.19987235 78.22068011 241.7318678 103.32728296 237.65234375 126.28515625 C232.92749885 146.28629339 223.80568937 163.38046731 213.34082031 180.88037109 C204.13748639 195.93322338 204.13748639 195.93322338 201.78125 212.97265625 C202.36879454 215.86749444 202.36879454 215.86749444 203.78125 217.97265625 C205.08861087 218.68891722 206.42878427 219.34571234 207.78125 219.97265625 C257.46625496 245.6535874 257.46625496 245.6535874 267.78125 273.97265625 C269.90102838 281.03946854 270.11599485 287.94880473 270.09375 295.28515625 C270.10986328 296.33638672 270.12597656 297.38761719 270.14257812 298.47070312 C270.16097713 328.40588264 250.29407491 353.23297708 230.78125 373.97265625 C230.10578125 374.70226562 229.4303125 375.431875 228.734375 376.18359375 C223.60876249 381.55868298 219.4987147 384.10113037 211.90625 384.47265625 C205.98892572 384.31848279 202.20088137 382.88110134 197.78125 378.97265625 C192.81319198 373.62243992 192.38291082 369.14545736 192.42578125 362.0546875 C192.95972455 357.4252231 194.91869398 354.53799548 197.78125 350.97265625 C198.338125 350.14765625 198.895 349.32265625 199.46875 348.47265625 C199.901875 347.97765625 200.335 347.48265625 200.78125 346.97265625 C201.44125 346.97265625 202.10125 346.97265625 202.78125 346.97265625 C203.04550781 346.38742187 203.30976563 345.8021875 203.58203125 345.19921875 C204.82556147 342.89038414 206.18693775 341.26402183 207.96875 339.34765625 C216.96612645 329.21631294 227.58717426 314.91219263 228.78125 300.97265625 C228.86117188 300.18761719 228.94109375 299.40257812 229.0234375 298.59375 C229.43231737 290.90921362 227.39010239 283.77263279 223.02734375 277.41796875 C216.45380463 270.26138529 206.83337829 265.8313824 198.09375 261.84765625 C182.55463697 254.76456658 167.63050834 245.31171615 160.96875 228.84765625 C155.41427358 212.18422698 159.72406533 194.64528492 167.0078125 179.27734375 C170.68408798 171.97297836 175.10591645 165.08455168 179.41708374 158.144104 C190.62594744 140.07401299 200.87930853 120.93543437 196.5703125 98.98828125 C193.51991745 87.33033582 187.90230048 76.86358424 177.78125 69.97265625 C164.75894327 62.39604143 149.74225744 60.26489042 135.22338867 64.02124023 C120.09868144 68.21679839 107.44630818 77.22363244 94.59887695 85.91821289 C88.47515207 90.04313241 82.3059157 93.92373636 75.79296875 97.41015625 C75.18891708 97.73415405 74.58486542 98.05815186 73.96250916 98.39196777 C59.89944368 105.74484137 42.32563721 108.05377142 26.96875 103.28515625 C12.10504648 97.24282918 2.58922833 87.18828314 -3.62588501 72.49516296 C-5.29443562 68.45767202 -6.92333583 64.40482841 -8.54150391 60.34692383 C-14.19302462 45.19953149 -14.19302462 45.19953149 -25.21875 33.97265625 C-35.23547663 30.19275941 -43.55396568 32.12977884 -53.21875 35.97265625 C-64.22485674 40.98330836 -73.53880163 48.08504718 -82.9453125 55.5859375 C-102.6196659 71.27011079 -102.6196659 71.27011079 -111.55859375 70.8671875 C-116.91582753 69.96688698 -120.50259787 68.04272763 -124.21875 63.97265625 C-127.30583332 58.89536536 -127.46327225 54.26293767 -126.8359375 48.46484375 C-125.48822492 43.02281447 -122.73458376 39.09725316 -118.96875 35.03515625 C-118.24171875 34.24238281 -117.5146875 33.44960938 -116.765625 32.6328125 C-115.50492188 31.31603516 -115.50492188 31.31603516 -114.21875 29.97265625 C-113.43201904 29.14761597 -113.43201904 29.14761597 -112.62939453 28.3059082 C-108.56030578 24.12490516 -104.28584881 20.49583928 -99.59375 17.03515625 C-98.55105957 16.26147705 -98.55105957 16.26147705 -97.48730469 15.47216797 C-69.34151134 -5.16421961 -32.51940603 -20.153474 0 0 Z " fill="#FFFFFF" transform="translate(274.21875,9.02734375)"/>
<path d="M0 0 C2.13195756 1.19549022 3.83810364 2.47530192 5.65234375 4.109375 C6.17957031 4.57085937 6.70679687 5.03234375 7.25 5.5078125 C11.57014701 10.24914376 11.31374275 15.7124129 11.06640625 21.86328125 C10.53721425 26.0119468 9.57772246 28.10898658 6.65234375 31.109375 C5.74484375 32.058125 4.83734375 33.006875 3.90234375 33.984375 C0.20460859 37.0418097 -3.93606601 39.02025324 -8.22265625 41.109375 C-28.1308046 50.81459732 -43.00417431 65.62096359 -50.3515625 86.875 C-50.68027344 87.94234375 -51.00898437 89.0096875 -51.34765625 90.109375 C-51.66605469 91.11484375 -51.98445313 92.1203125 -52.3125 93.15625 C-58.10657438 115.05090896 -55.15064385 139.94670464 -44.4453125 159.8515625 C-41.33253015 164.68593956 -37.73952413 169.00065897 -33.8984375 173.26953125 C-32.286845 175.06375445 -30.72378905 176.90391197 -29.234375 178.80078125 C-27.5435972 180.86962116 -25.95291978 182.36714983 -23.84765625 183.984375 C-19.28832537 187.87696502 -16.70430298 191.20104957 -15.96875 197.19921875 C-15.72604823 204.03401365 -15.98849963 208.74425916 -20.34765625 214.109375 C-25.07349756 218.2122645 -29.13291841 220.24956989 -35.47265625 220.484375 C-36.80683594 220.55785156 -36.80683594 220.55785156 -38.16796875 220.6328125 C-46.696764 219.22880935 -52.87624982 213.26849837 -58.72265625 207.296875 C-59.45798584 206.55058838 -60.19331543 205.80430176 -60.95092773 205.03540039 C-87.12327408 177.83095363 -96.09165867 144.10255673 -95.43652344 107.15185547 C-94.72384117 82.75227746 -85.15007477 59.329668 -70.34765625 40.109375 C-69.93918457 39.57747559 -69.53071289 39.04557617 -69.10986328 38.49755859 C-64.06272345 31.97368479 -64.06272345 31.97368479 -61.34765625 29.109375 C-60.68765625 29.109375 -60.02765625 29.109375 -59.34765625 29.109375 C-59.34765625 28.449375 -59.34765625 27.789375 -59.34765625 27.109375 C-58.68765625 27.109375 -58.02765625 27.109375 -57.34765625 27.109375 C-57.34765625 26.449375 -57.34765625 25.789375 -57.34765625 25.109375 C-55.36731907 23.32432531 -53.38827869 21.67729511 -51.28515625 20.046875 C-50.65609375 19.55807861 -50.02703125 19.06928223 -49.37890625 18.56567383 C-36.700568 8.90471732 -16.55833687 -6.28169851 0 0 Z " fill="#FFFFFF" transform="translate(95.34765625,172.890625)"/>
<path d="M0 0 C7.36734644 4.96867551 10.47820368 10.6435882 12.9375 19 C16.61865113 30.61598266 23.61326752 40.52442789 34.578125 46.34765625 C49.51142751 52.9144803 65.07669608 53.82882517 80.6875 48.8125 C92.27264088 44.23685612 99.76367846 37.14923132 105.06640625 25.8828125 C107.03102336 21.27329295 108.75752586 16.67619808 110.1875 11.875 C111.84182107 6.73545195 114.84031095 4.07399496 119.25 1.0625 C123.77496323 -1.25799396 127.58945032 -1.53313049 132.6875 -1.1875 C138.70925921 0.88896869 143.11409766 3.26250311 146.5 8.75 C150.42641455 19.43983384 147.09905607 30.83459819 142.6875 40.8125 C132.60413422 62.08525777 115.69263736 78.15869604 93.734375 86.78515625 C69.50846943 94.95363467 42.43617637 93.8898064 19.203125 83.2109375 C-3.48495719 71.54734595 -18.49255574 52.64568739 -26.3828125 28.54296875 C-28.31142773 21.63644123 -29.40667487 16.15249688 -26.1796875 9.46484375 C-20.29286562 -0.42694711 -11.00748475 -3.94607944 0 0 Z " fill="#FFFFFF" transform="translate(204.3125,273.1875)"/>
<path d="M0 0 C1.54494141 -0.04350586 1.54494141 -0.04350586 3.12109375 -0.08789062 C14.53682696 -0.18122681 23.3474466 3.49892833 32.375 10.3125 C32.99117188 10.75207031 33.60734375 11.19164062 34.2421875 11.64453125 C40.2671545 16.29045025 44.97131864 23.10145592 47.375 30.3125 C48.10653343 37.06419382 47.6665857 42.85472253 43.375 48.3125 C38.68665349 53.04126329 34.3240475 54.71022098 27.6875 54.9375 C21.07358308 54.5768804 17.85470304 53.05527566 13.38671875 48.11328125 C12.0022286 46.54149261 10.63980506 44.94987479 9.3046875 43.3359375 C6.77224479 40.68046113 4.88966262 39.3937878 1.19140625 39.1953125 C-7.14951756 40.09156428 -10.6404056 44.09322244 -15.78125 50.41015625 C-18.83040517 53.55621254 -21.37319529 55.13859471 -25.74609375 55.74609375 C-36.95016892 55.75929054 -36.95016892 55.75929054 -41.625 51.3125 C-46.99982935 45.82304159 -49.11606304 41.71343976 -49.0390625 33.94921875 C-47.48022308 24.02264698 -40.85553832 15.54872545 -33 9.75 C-22.17468297 2.45221528 -12.85247532 0.11798478 0 0 Z " fill="#FFFFFF" transform="translate(334.625,178.6875)"/>
<path d="M0 0 C1.05058594 -0.01546875 2.10117188 -0.0309375 3.18359375 -0.046875 C15.94403697 0.01621743 27.49675636 4.86660398 36.79296875 13.671875 C38.81757965 15.87501632 40.68342342 18.12320932 42.5 20.5 C43.01691406 21.17160156 43.53382813 21.84320313 44.06640625 22.53515625 C47.44814419 27.3813505 48.46801887 31.62613249 48.5 37.5 C48.520625 38.655 48.54125 39.81 48.5625 41 C46.82768789 46.71467519 42.61889228 51.44244267 37.62890625 54.734375 C32.25064924 56.66857385 25.50317961 56.51418852 20.1171875 54.6953125 C15.29705566 51.95445322 12.31539542 48.03141508 9.23828125 43.48828125 C6.73685381 40.62709795 4.20506313 39.62594216 0.4375 39.34765625 C-4.86635548 39.93578539 -6.90943192 41.38398293 -10.5 45.5 C-12.04573555 46.93493982 -13.60960659 48.35049899 -15.1875 49.75 C-15.95449219 50.43578125 -16.72148437 51.1215625 -17.51171875 51.828125 C-22.36325107 55.90760601 -28.45800719 55.01252269 -34.5 54.5 C-39.92840288 52.84211081 -43.27307627 48.96074751 -46.5 44.5 C-48.48167356 38.55497931 -48.66890538 31.16832831 -46.0625 25.375 C-36.02579398 8.49508532 -19.29813441 -0.28414431 0 0 Z " fill="#FFFFFF" transform="translate(195.5,178.5)"/>
</svg>
